<svg width="14" height="14" viewBox="0 0 14 14" fill="none" xmlns="http://www.w3.org/2000/svg">
<path fill-rule="evenodd" clip-rule="evenodd" d="M7 12C5.61929 12 4.36929 11.4404 3.46447 10.5355L5.83333 8.16667L2.13684 8.16667H0.0967849H0V14L2.05025 11.9497C3.317 13.2165 5.067 14 7 14C10.4685 14 13.3478 11.4773 13.9032 8.16667H11.8632C11.3376 10.3654 9.35971 12 7 12ZM14 5.83333H13.9032H11.8632H8.16667L10.5355 3.46447C9.63071 2.55964 8.38071 2 7 2C4.64029 2 2.66237 3.63464 2.13684 5.83333H0.0967848C0.652209 2.52267 3.5315 0 7 0C8.933 0 10.683 0.783502 11.9497 2.05025L14 0V5.83333Z" fill="#011C4D"/>
</svg>
