<svg width="15" height="15" viewBox="0 0 15 15" fill="none" xmlns="http://www.w3.org/2000/svg">
<g opacity="0.4">
<path fill-rule="evenodd" clip-rule="evenodd" d="M5 4C5 3.44772 5.44772 3 6 3C6.55228 3 7 3.44772 7 4C7 4.55228 6.55228 5 6 5C5.44772 5 5 4.55228 5 4ZM6 6C5.44772 6 5 6.44772 5 7C5 7.55228 5.44772 8 6 8C6.55228 8 7 7.55228 7 7C7 6.44772 6.55228 6 6 6ZM9 6C8.44772 6 8 6.44772 8 7C8 7.55228 8.44772 8 9 8C9.55228 8 10 7.55228 10 7C10 6.44772 9.55228 6 9 6ZM5 10C5 9.44772 5.44772 9 6 9C6.55228 9 7 9.44772 7 10C7 10.5523 6.55228 11 6 11C5.44772 11 5 10.5523 5 10ZM9 9C8.44772 9 8 9.44772 8 10C8 10.5523 8.44772 11 9 11C9.55228 11 10 10.5523 10 10C10 9.44772 9.55228 9 9 9ZM9 3C8.44772 3 8 3.44772 8 4C8 4.55228 8.44772 5 9 5C9.55228 5 10 4.55228 10 4C10 3.44772 9.55228 3 9 3Z" fill="#011C4D"/>
</g>
</svg>
